HIERARCHY
ROOT Pelvis
{
	OFFSET 0.000000 0.000000 0.000000
	CHANNELS 6 Xposition Yposition Zposition Zrotation Yrotation Xrotation 
	JOINT Left_hip
	{
		OFFSET 0.076090 -0.089427 -0.010735
		CHANNELS 3 Zrotation Yrotation Xrotation
		JOINT Left_knee
		{
			OFFSET 0.030200 -0.359518 -0.003501
			CHANNELS 3 Zrotation Yrotation Xrotation
			JOINT Left_ankle
			{
				OFFSET -0.011005 -0.371022 -0.045888
				CHANNELS 3 Zrotation Yrotation Xrotation
				JOINT Left_foot
				{
					OFFSET 0.023930 -0.052103 0.111084
					CHANNELS 3 Zrotation Yrotation Xrotation
					End Site
					{
						OFFSET 0.000000 0.000000 0.000000
					}
				}
			}
		}
	}
	JOINT Right_hip
	{
		OFFSET -0.073836 -0.088112 -0.007709
		CHANNELS 3 Zrotation Yrotation Xrotation
		JOINT Right_knee
		{
			OFFSET -0.035715 -0.367809 -0.006536
			CHANNELS 3 Zrotation Yrotation Xrotation
			JOINT Right_ankle
			{
				OFFSET 0.013718 -0.371958 -0.043815
				CHANNELS 3 Zrotation Yrotation Xrotation
				JOINT Right_foot
				{
					OFFSET -0.021936 -0.046387 0.114542
					CHANNELS 3 Zrotation Yrotation Xrotation
					End Site
					{
						OFFSET 0.000000 0.000000 0.000000
					}
				}
			}
		}
	}
	JOINT Spine1
	{
		OFFSET -0.001865 0.102064 -0.019455
		CHANNELS 3 Zrotation Yrotation Xrotation
		JOINT Spine2
		{
			OFFSET 0.003082 0.129260 -0.001938
			CHANNELS 3 Zrotation Yrotation Xrotation
			JOINT Spine3
			{
				OFFSET 0.001104 0.048093 0.026561
				CHANNELS 3 Zrotation Yrotation Xrotation
				JOINT Neck
				{
					OFFSET -0.002010 0.204222 -0.047183
					CHANNELS 3 Zrotation Yrotation Xrotation
					JOINT Head
					{
						OFFSET 0.005050 0.063649 0.048489
						CHANNELS 3 Zrotation Yrotation Xrotation
						End Site
						{
							OFFSET 0.000000 0.000000 0.000000
						}
					}
				}
				JOINT Left_collar
				{
					OFFSET 0.072979 0.114065 -0.031633
					CHANNELS 3 Zrotation Yrotation Xrotation
					JOINT Left_shoulder
					{
						OFFSET 0.083419 0.032092 -0.006530
						CHANNELS 3 Zrotation Yrotation Xrotation
						JOINT Left_elbow
						{
							OFFSET 0.239393 -0.012014 -0.025060
							CHANNELS 3 Zrotation Yrotation Xrotation
							JOINT Left_wrist
							{
								OFFSET 0.227297 0.008116 0.000384
								CHANNELS 3 Zrotation Yrotation Xrotation
								JOINT Left_palm
								{
									OFFSET 0.074607 -0.009248 -0.012277
									CHANNELS 3 Zrotation Yrotation Xrotation
									End Site
									{
										OFFSET 0.000000 0.000000 0.000000
									}
								}
							}
						}
					}
				}
				JOINT Right_collar
				{
					OFFSET -0.074980 0.111880 -0.037894
					CHANNELS 3 Zrotation Yrotation Xrotation
					JOINT Right_shoulder
					{
						OFFSET -0.087565 0.034353 -0.009323
						CHANNELS 3 Zrotation Yrotation Xrotation
						JOINT Right_elbow
						{
							OFFSET -0.236838 -0.013719 -0.019794
							CHANNELS 3 Zrotation Yrotation Xrotation
							JOINT Right_wrist
							{
								OFFSET -0.235053 0.006433 -0.003853
								CHANNELS 3 Zrotation Yrotation Xrotation
								JOINT Right_palm
								{
									OFFSET -0.075499 -0.006894 -0.009792
									CHANNELS 3 Zrotation Yrotation Xrotation
									End Site
									{
										OFFSET 0.000000 0.000000 0.000000
									}
								}
							}
						}
					}
				}
			}
		}
	}
}
MOTION
Frames: 16
Frame Time: 0.100000
-0.015036 -0.007294 0.027203 165.781592 50.955861 -22.324972 1.764630 1.598114 11.178572 -1.597643 -8.708277 -6.828814 -14.229011 10.235974 -8.245248 25.449914 -2.266786 -5.784521 2.008708 -1.266568 11.411670 3.024826 0.785994 -6.683398 10.897734 -4.800377 -7.255945 -13.959530 -6.094737 7.039951 3.205327 2.541947 -0.121646 -1.628125 2.580698 6.376902 0.972503 4.857662 -2.548576 5.224302 -8.401757 -6.413918 -5.145101 -8.360497 13.434680 -19.501453 -9.099284 8.598513 -60.943380 18.773964 41.369388 -74.601031 -59.686778 122.602758 13.233032 -31.354417 24.680878 -19.151690 -2.597175 -40.650767 3.152958 34.988204 -1.467481 16.814260 43.631053 -14.224533 -5.190211 11.182501 -29.962149 -9.125057 5.408154 -21.755053 6.065965 -1.853908 -15.099504 
-0.016710 -0.007266 0.029894 165.724195 50.633511 -22.581544 1.927137 1.318258 11.727269 -1.699059 -8.477360 -6.917713 -13.952891 10.745725 -8.638273 25.064438 -3.109758 -5.361523 2.150237 -1.205432 11.802114 3.091311 0.991218 -6.608056 10.681630 -4.711336 -7.409316 -13.809597 -5.919099 6.957428 2.691281 2.653019 -0.410405 -1.237135 2.477521 6.853502 1.083442 4.769955 -2.605203 4.854341 -8.402226 -6.912998 -4.465186 -8.799286 12.666178 -20.485760 -8.090036 9.312900 -60.884810 19.866187 40.999104 -74.870381 -60.359553 120.247578 14.357808 -30.037171 18.857344 -19.153588 -2.648644 -38.814641 6.170613 34.017249 0.654645 21.046704 41.718120 -9.782012 -4.132778 12.081965 -27.760245 -7.553698 5.372947 -22.052720 6.095969 -1.462730 -14.827837 
-0.019235 -0.006851 0.032342 165.365655 51.162358 -23.062419 2.057192 1.319446 12.126122 -1.721443 -8.757462 -6.860835 -13.945758 10.447107 -8.776295 25.001163 -2.980775 -5.368350 2.166444 -1.311896 12.307579 3.137182 0.595041 -6.572333 11.146999 -4.409665 -7.564756 -15.009210 -6.032461 6.118815 2.137487 2.734669 -0.189610 -0.817989 2.218719 7.577873 1.391236 4.345477 -2.817741 3.377762 -7.588076 -9.191897 -4.279367 -9.348218 9.444185 -22.246977 -6.123709 10.146688 -61.635478 22.102656 39.338323 -72.574409 -61.698358 117.650471 13.732577 -28.610828 20.817461 -19.619418 -3.483225 -39.393794 11.052772 31.281675 3.675462 29.151187 35.720201 -3.222796 -3.939798 14.533536 -25.138518 -6.502877 5.705581 -22.777373 7.258094 -0.819299 -15.435910 
-0.021109 -0.007460 0.033356 164.720595 51.810469 -23.631272 2.120168 0.847303 12.068467 -1.712666 -9.010248 -6.440705 -13.654543 11.066444 -8.908321 24.171153 -3.794293 -5.205835 2.042687 -1.776517 12.653561 3.452820 0.784706 -6.668810 11.665404 -4.700891 -7.486685 -15.637514 -5.327126 5.556579 1.968458 2.942453 0.179896 -0.336634 2.180398 8.250827 1.769931 4.090547 -2.448467 1.066377 -6.358783 -11.287111 -3.808571 -8.332785 4.900481 -24.041402 -3.133379 10.344505 -59.679256 24.590632 38.382877 -75.890623 -61.725019 118.686968 14.801485 -27.444385 18.408061 -19.735796 -4.288362 -37.807743 15.732603 26.816356 6.643566 31.861849 26.637947 1.805275 -1.175919 19.570095 -18.001223 -5.530534 6.532071 -19.797518 8.157147 0.281372 -15.860012 
-0.020278 -0.007486 0.032533 164.111824 52.302287 -23.745421 2.259659 0.296174 11.424772 -1.845530 -9.531994 -6.184190 -14.467293 12.296027 -9.264951 25.138681 -5.099155 -5.212000 2.195676 -1.812433 12.163280 3.440750 1.409083 -6.602193 13.327010 -6.199854 -7.698639 -18.347216 -3.578033 4.822519 1.421825 3.086394 0.971065 0.137511 1.865792 8.283791 2.087798 3.854329 -2.195100 1.223576 -5.305833 -13.881372 -1.319516 -8.457524 2.635334 -23.536726 -1.989256 11.050013 -53.819439 26.421327 38.366141 -81.980009 -60.884534 122.285987 13.768400 -28.777394 17.213603 -19.407531 -4.296533 -37.258244 17.418889 23.883008 8.714033 32.460036 17.786362 4.782365 2.254606 22.683362 -12.126035 -3.927168 7.767829 -19.093013 7.896657 0.338613 -16.085781 
-0.016229 -0.007106 0.030501 164.488352 52.465687 -22.662791 2.095207 -0.088237 10.438375 -2.070462 -9.935034 -6.364909 -15.641437 13.691600 -9.728260 26.165310 -7.690080 -4.031682 2.142617 -1.549990 10.607029 3.199116 2.517498 -5.789600 15.514980 -8.442269 -8.942996 -22.405058 0.091394 4.231704 0.725956 3.299358 1.893631 1.289625 0.204540 8.445549 2.233151 3.455194 -2.082109 -1.683308 -1.700232 -17.442920 -0.804161 -9.036692 -2.003452 -20.867382 -4.700236 11.737084 -44.926768 25.901686 38.428263 -72.150939 -57.123278 103.908275 10.752420 -26.423067 6.291099 -19.740154 -4.825333 -34.626414 18.423840 22.275428 9.181529 31.756646 12.183016 6.076929 2.100476 26.561689 -13.727113 -2.931174 8.131128 -22.243512 10.246065 1.972142 -17.218336 
-0.011510 -0.006874 0.028407 165.314684 51.485290 -20.986828 1.972840 0.874547 8.879782 -2.199527 -9.747700 -5.844130 -14.127105 12.283550 -8.556231 23.303789 -3.504081 -2.795329 2.147994 -0.831121 8.790714 3.061933 3.200164 -5.229083 15.527562 -9.675634 -9.202941 -23.561551 2.481548 3.005900 1.312007 3.110914 2.835239 1.457060 -0.703344 8.268555 2.032296 2.658465 -2.786394 -1.563345 0.277805 -19.581472 -1.213677 -9.695148 -6.648313 -21.131622 -7.153921 10.298154 -40.157491 21.218759 31.341865 -37.649377 -47.372458 65.727214 -11.387870 -18.655391 16.665569 -16.926005 -3.906391 -35.692704 18.220524 21.078540 7.410315 31.909075 9.403022 6.727232 -0.291796 30.974147 -12.814820 6.891909 9.355849 -23.611000 11.300065 2.286919 -16.040629 
-0.008203 -0.006648 0.026524 166.406926 49.415196 -19.732038 1.952504 2.376732 8.201362 -2.458215 -9.159771 -5.396650 -10.838843 9.930883 -6.904795 17.680650 3.414939 -2.341301 1.935284 -0.575779 7.946468 3.149333 3.701960 -5.140177 13.279075 -8.920343 -8.059382 -20.130812 2.714693 2.167084 2.778082 2.679666 3.902115 0.611799 -0.378622 7.768246 1.951215 2.169564 -3.220124 0.865892 -3.896938 -20.226889 0.288944 -10.651517 -12.135171 -23.255610 -7.328700 5.962419 -38.944981 12.759154 19.375946 -6.809309 -39.665213 29.629392 -15.779480 -8.159217 28.318565 -14.439894 -3.229903 -34.815248 16.940383 19.999698 3.337190 32.010016 8.953138 6.293128 -5.263831 36.759857 -14.523837 12.637309 8.334311 -21.827959 10.281752 2.067178 -12.571603 
-0.004923 -0.007394 0.022339 167.161221 48.364573 -18.504487 1.510238 1.924843 7.349758 -2.574120 -6.845338 -5.423623 -8.517676 9.009717 -5.244123 13.745703 5.907465 -4.119520 1.609652 -0.697735 6.534719 3.181514 2.725971 -4.444034 11.441967 -6.150615 -6.341427 -16.552871 0.175566 1.505879 4.512457 1.668304 5.082952 0.116345 -0.096092 5.286611 2.442372 1.859959 -2.381624 1.627401 -11.839993 -19.894379 3.615190 -11.150930 -14.315771 -19.845456 -5.884999 1.763921 -45.576551 1.546902 11.443614 24.864801 -50.790210 -8.596749 -1.713381 -10.870975 9.680157 -11.259217 -0.761734 -21.499039 10.684358 17.979506 -0.624506 34.732236 11.678897 5.607676 -23.330701 48.354641 -25.943092 4.329023 7.214100 -22.493852 7.202169 1.627417 -6.560296 
-0.002930 -0.007893 0.014233 168.140084 47.007202 -16.069647 0.540365 1.832629 4.979871 -2.336502 -4.286993 -5.003998 -7.729841 7.570690 -3.493999 12.713633 8.773839 -6.933676 0.990425 -0.705824 3.935467 2.943760 1.736077 -3.847052 11.513135 -3.361537 -4.574972 -16.328721 -2.353727 -0.118172 7.075983 -0.376660 6.745242 0.139890 -0.984627 3.202779 3.728010 0.905378 -1.151074 1.893097 -15.275594 -20.144807 4.306445 -7.353240 -16.046817 -15.989122 -5.516960 -1.309381 -56.236952 -6.342213 8.586065 75.139271 -55.962987 -54.530663 15.684788 -9.330509 -1.805319 -10.933407 -0.698136 -13.747819 2.531631 16.817068 -4.661707 37.131913 17.221717 3.503298 -65.170070 59.274282 -58.036907 -8.628486 5.982401 -19.075268 6.930797 2.415881 -3.730557 
-0.003817 -0.007600 0.007568 169.469934 45.773314 -12.404913 -0.499170 1.743577 2.198793 -2.428430 -1.640336 -5.605178 -5.888388 5.589670 -1.391266 10.021238 11.567982 -9.015813 -0.143668 -0.788558 1.329016 2.997417 0.454396 -5.082287 11.214953 -0.071435 -2.192573 -14.175518 -5.174928 -0.816922 9.038786 -1.204700 8.135406 0.718049 -1.372126 2.152671 4.559207 0.598717 -0.463334 2.979322 -17.216308 -18.742966 5.304625 -5.346835 -17.891471 -14.296113 -4.113457 -3.779199 -64.667839 -12.767087 8.925728 117.485902 -49.402415 -89.502638 28.623620 -6.365255 -7.165519 -12.281067 -1.861254 -8.609182 -1.306045 13.795205 -6.922601 40.093447 19.996761 2.811054 -116.843348 54.136248 -98.442816 -22.112738 6.653568 -13.480204 9.469611 4.514572 -3.253224 
-0.003858 -0.006968 0.004188 169.760956 46.098371 -10.729676 -0.892617 2.146110 0.502116 -2.506066 -0.713766 -5.577747 -5.323386 3.790698 -0.599100 8.756768 13.401765 -9.712378 -0.519914 -0.386124 0.027895 2.889184 -1.556623 -5.676853 10.147874 2.709171 -0.950195 -10.881585 -9.390813 -1.165027 9.404381 -1.910441 10.374058 2.261005 -2.712815 2.292805 5.407359 -0.384725 -0.599944 5.979152 -17.389304 -17.398769 7.016146 -5.898387 -19.911391 -14.952730 -2.050209 -2.720498 -68.634845 -11.982161 9.122990 140.160887 -43.649173 -102.577671 35.896485 -10.094360 -2.127022 -13.129275 -2.589019 -9.790926 -0.635363 11.089208 -7.212174 47.365342 20.563828 4.999476 -141.919723 43.353258 -112.842864 -32.865577 8.765782 -9.179722 11.483787 5.985932 -3.153501 
-0.003475 -0.006315 0.003807 170.259305 47.122982 -9.894750 -1.305963 2.335141 -0.116440 -2.562154 -0.949315 -5.520060 -5.657661 2.903514 -0.331917 8.889104 13.893350 -9.845209 -0.983376 -0.466807 -0.254716 2.812394 -2.477379 -5.950796 10.407029 3.276687 -0.878921 -10.966618 -10.234920 -1.744653 9.537678 -1.934286 11.548876 3.031519 -3.459399 2.713983 5.654014 -0.716695 -0.624413 4.564905 -13.522996 -17.574937 5.401631 -4.600684 -21.340855 -15.725223 -1.513515 -2.069214 -68.609947 -10.514811 8.219212 143.305399 -44.345617 -102.980113 39.339528 -13.224736 3.387609 -14.255376 -3.674433 -11.761005 2.239507 9.545525 -6.234418 51.700102 18.161377 7.130190 -149.666002 39.719725 -116.481139 -38.617945 10.979089 -6.423153 13.857104 7.191634 -4.424007 
-0.003142 -0.007680 0.010511 170.718466 49.593605 -9.359889 -1.470093 1.761808 -0.102257 -2.558534 -1.806757 -5.821761 -6.811112 2.194489 0.279998 9.889784 13.899612 -10.572455 -1.283111 -1.319813 -0.113403 2.733477 -2.879683 -5.732475 12.140774 1.556264 -1.852666 -14.815930 -6.855613 -2.255264 9.267416 -1.615707 10.394072 1.798495 -3.227603 1.400431 4.734287 -0.469696 -0.337363 -2.948855 -0.656276 -19.927591 -2.600665 3.856343 -18.681055 -14.593769 -3.163938 -3.315404 -65.738908 -13.467400 7.154522 138.365476 -44.924878 -100.059135 37.422195 -13.068892 2.139381 -14.242861 -3.759130 -9.843076 4.773005 8.145287 -5.204505 52.418830 16.374689 7.624448 -144.604872 40.915378 -113.884963 -36.480956 10.697719 -8.710056 15.314503 7.014898 -4.359438 
-0.003170 -0.009344 0.024514 169.718771 53.252832 -11.046463 -0.913604 1.159239 0.884639 -2.157616 -3.246823 -5.304724 -6.742906 0.644374 0.414554 9.166302 15.113336 -12.310324 -0.613863 -2.678290 1.730564 2.796923 -3.513922 -5.572533 13.187640 -0.195735 -3.310824 -17.408541 -3.816762 -2.895139 7.900910 -0.507928 8.276989 -0.509203 -2.428049 0.613773 3.230115 -0.093550 -0.055379 -10.173579 12.483445 -20.909615 -9.796774 14.193967 -14.490433 -13.338128 -5.695797 -5.025338 -63.631416 -19.928977 7.251469 139.366450 -44.006020 -99.630064 36.431794 -14.566853 4.735554 -14.277735 -3.660923 -8.462893 5.878309 6.279358 -4.070720 53.445763 13.868107 6.943631 -138.970593 40.617232 -110.326712 -33.823954 9.694102 -13.063225 16.695495 6.431201 -4.057508 
-0.001156 -0.010708 0.039246 168.165217 55.999060 -12.754194 0.233569 0.483541 1.410823 -1.922087 -4.380877 -4.918769 -5.481102 -0.810808 0.258809 6.744374 16.078620 -13.353612 0.663052 -3.688658 2.924692 2.824191 -4.254526 -5.543363 12.932085 -0.970939 -4.313132 -17.355797 -2.602426 -2.992143 5.725332 0.744969 7.278709 -2.819314 -1.442121 -0.086977 1.597093 0.288686 -0.044519 -14.168782 19.466858 -20.532799 -12.701453 19.606058 -11.857946 -13.177606 -6.222722 -6.229054 -62.197995 -24.781408 7.077384 144.085114 -42.272031 -101.424334 37.249909 -15.778822 6.948433 -14.324530 -3.916889 -6.795714 7.101582 4.130498 -3.355647 55.269841 11.353170 6.745079 -139.422570 39.410127 -108.834128 -33.485310 10.688676 -12.390375 18.198108 6.716005 -3.675416 
